<?xml version="1.0" standalone="no"?>
<!DOCTYPE svg PUBLIC "-//W3C//DTD SVG 20010904//EN"
 "http://www.w3.org/TR/2001/REC-SVG-20010904/DTD/svg10.dtd">
<svg version="1.0" xmlns="http://www.w3.org/2000/svg"
 width="700.000000pt" height="700.000000pt" viewBox="0 0 700.000000 700.000000"
 preserveAspectRatio="xMidYMid meet">
<metadata>
Created by potrace 1.11, written by Peter Selinger 2001-2013
</metadata>
<g transform="translate(0.000000,700.000000) scale(0.100000,-0.100000)"
fill="#000000" stroke="none">
<path d="M1800 6297 c-3 -3 -32 -7 -65 -10 -33 -3 -67 -8 -75 -11 -8 -3 -26
-7 -40 -10 -56 -9 -190 -60 -272 -103 -95 -50 -205 -129 -281 -202 -62 -58
-166 -191 -202 -256 -15 -27 -30 -54 -35 -60 -33 -46 -102 -264 -117 -373 -10
-73 -10 -282 -1 -347 56 -386 303 -726 658 -905 60 -30 211 -84 260 -93 14 -3
54 -11 90 -18 44 -8 185 -12 437 -13 204 -1 375 -4 378 -8 7 -7 8 -768 1 -775
-2 -2 -170 -6 -372 -8 -203 -2 -387 -6 -408 -9 -360 -49 -673 -247 -865 -546
-133 -206 -193 -427 -187 -690 2 -74 8 -153 14 -175 39 -147 59 -210 93 -284
134 -291 400 -531 700 -635 117 -40 212 -57 349 -63 557 -24 1063 353 1204
900 35 136 40 203 40 595 1 336 1 342 21 343 11 0 130 0 265 0 135 -1 304 -1
375 -1 l130 0 0 -368 c1 -408 7 -474 60 -638 52 -159 118 -279 223 -402 182
-215 407 -349 684 -408 101 -22 362 -25 453 -5 252 53 455 161 630 336 153
153 256 329 310 527 36 133 40 171 39 333 0 140 -8 199 -45 330 -85 298 -314
576 -596 723 -72 37 -232 96 -292 107 -14 3 -35 7 -47 9 -76 15 -169 19 -486
20 -196 1 -360 4 -363 8 -4 4 -8 180 -8 392 -2 380 -2 386 18 387 11 0 184 2
385 4 201 2 376 6 390 8 14 3 41 7 60 10 66 11 207 56 283 91 366 166 622 501
691 901 18 105 14 336 -8 434 -81 367 -314 669 -642 834 -78 39 -228 92 -289
102 -22 4 -65 10 -95 15 -59 9 -292 6 -350 -5 -457 -84 -829 -414 -953 -845
-46 -158 -50 -214 -51 -607 -1 -324 -3 -373 -16 -374 -74 -3 -764 1 -767 5 -3
3 -7 175 -8 383 -3 414 -8 465 -66 637 -62 183 -144 315 -290 463 -184 187
-425 306 -694 342 -65 9 -248 14 -255 8z m245 -572 c16 -3 59 -18 95 -32 203
-81 350 -260 395 -483 6 -26 10 -614 6 -736 -1 -20 -4 -20 -363 -19 -303 2
-374 5 -428 18 -217 56 -399 229 -466 444 -24 77 -29 226 -10 312 50 236 237
431 468 490 73 19 232 22 303 6z m3186 0 c309 -69 515 -334 505 -650 -7 -247
-153 -463 -380 -564 -114 -50 -148 -53 -516 -53 -190 0 -354 1 -366 1 -20 1
-20 4 -18 369 2 388 5 419 54 529 121 274 430 432 721 368z m-1340 -2172 c0
-189 1 -362 2 -386 0 -24 -2 -47 -5 -52 -4 -6 -155 -9 -395 -7 l-388 2 2 378
c1 207 2 383 3 389 0 12 252 18 703 18 l77 0 1 -342z m-1351 -1015 c3 -4 5
-168 4 -365 -1 -335 -2 -363 -23 -436 -24 -89 -38 -118 -92 -199 -127 -187
-342 -290 -573 -275 -156 10 -295 74 -406 187 -118 119 -178 252 -187 415 -18
318 195 596 506 663 65 14 136 17 422 17 189 0 346 -3 349 -7z m2710 -11 c177
-46 340 -177 419 -337 23 -47 43 -95 46 -108 2 -12 7 -26 10 -32 3 -5 8 -51
11 -102 32 -557 -584 -887 -1031 -553 -105 79 -197 221 -231 357 -15 62 -17
125 -18 431 -1 197 0 360 1 361 1 1 165 1 365 0 303 -1 374 -4 428 -17z"/>
</g>
</svg>
