<?xml version="1.0" standalone="no"?>
<!DOCTYPE svg PUBLIC "-//W3C//DTD SVG 20010904//EN"
 "http://www.w3.org/TR/2001/REC-SVG-20010904/DTD/svg10.dtd">
<svg version="1.0" xmlns="http://www.w3.org/2000/svg"
 width="396.000000pt" height="396.000000pt" viewBox="0 0 396.000000 396.000000"
 preserveAspectRatio="xMidYMid meet">
<metadata>
Created by potrace 1.11, written by Peter Selinger 2001-2013
</metadata>
<g transform="translate(0.000000,396.000000) scale(0.100000,-0.100000)"
fill="#000000" stroke="none">
<path d="M301 3246 l-221 -385 498 -863 c274 -475 601 -1042 728 -1260 l229
-398 442 -2 441 -3 205 355 c113 195 439 761 726 1257 286 496 522 906 523
911 2 5 -96 180 -217 389 l-220 381 -1456 1 -1456 2 -222 -385z m2687 -395
c-1 -5 -230 -401 -507 -880 l-504 -871 -499 867 c-275 476 -502 872 -505 879
-4 12 161 14 1007 14 574 0 1010 -4 1008 -9z"/>
</g>
</svg>
