<?xml version="1.0" standalone="no"?>
<!DOCTYPE svg PUBLIC "-//W3C//DTD SVG 20010904//EN"
 "http://www.w3.org/TR/2001/REC-SVG-20010904/DTD/svg10.dtd">
<svg version="1.0" xmlns="http://www.w3.org/2000/svg"
 width="700.000000pt" height="700.000000pt" viewBox="0 0 700.000000 700.000000"
 preserveAspectRatio="xMidYMid meet">
<metadata>
Created by potrace 1.11, written by Peter Selinger 2001-2013
</metadata>
<g transform="translate(0.000000,700.000000) scale(0.100000,-0.100000)"
fill="#000000" stroke="none">
<path d="M1800 6297 c-3 -2 -32 -7 -65 -10 -33 -3 -67 -8 -75 -11 -8 -3 -26
-7 -40 -10 -56 -9 -190 -60 -271 -103 -227 -119 -410 -307 -523 -536 -87 -175
-120 -322 -121 -527 0 -137 7 -199 34 -302 93 -354 336 -643 672 -796 62 -28
176 -67 223 -76 11 -2 50 -10 86 -16 43 -9 193 -14 440 -15 206 -1 377 -3 380
-4 7 -1 7 -781 0 -782 -3 -1 -167 -2 -365 -4 -198 -1 -382 -5 -410 -9 -479
-62 -873 -388 -1009 -836 -25 -86 -31 -109 -46 -210 -11 -70 -6 -313 8 -365
41 -154 59 -210 93 -284 135 -292 405 -536 703 -636 337 -113 709 -74 1005
107 275 169 466 423 545 728 35 138 39 187 41 580 2 195 3 357 4 360 0 3 177
5 393 5 l392 0 2 -385 c2 -421 9 -492 70 -662 89 -248 252 -454 474 -599 138
-91 256 -140 422 -175 104 -22 351 -25 453 -5 380 74 706 326 870 674 43 91
89 242 103 334 11 77 7 323 -7 388 -7 33 -22 92 -34 130 -11 39 -21 72 -22 75
-5 15 -28 68 -54 119 -110 222 -299 415 -518 529 -72 37 -232 96 -292 107 -14
3 -35 7 -47 9 -76 15 -169 19 -489 21 -198 2 -362 3 -365 4 -7 1 -7 781 0 782
3 1 172 3 375 4 407 2 482 10 647 65 305 102 576 345 707 634 34 76 76 202 85
256 3 19 10 57 15 84 14 74 6 319 -13 405 -95 426 -394 763 -801 899 -50 16
-106 33 -125 36 -19 3 -57 10 -85 15 -49 9 -311 8 -350 -1 -11 -3 -38 -9 -60
-13 -78 -13 -243 -75 -328 -122 -333 -184 -540 -472 -613 -851 -14 -71 -17
-157 -18 -467 l-2 -380 -379 0 c-209 -1 -387 1 -395 3 -13 3 -15 54 -16 380
-1 415 -7 474 -65 646 -83 245 -248 462 -463 609 -116 79 -296 155 -431 181
-16 4 -41 9 -55 12 -35 7 -284 17 -290 11z m245 -572 c16 -3 59 -18 95 -32
211 -84 364 -278 397 -503 5 -30 8 -208 8 -395 l0 -340 -365 1 c-409 1 -434 4
-570 71 -101 51 -231 179 -278 276 -48 98 -62 150 -68 257 -19 307 182 584
478 659 73 19 232 22 303 6z m3188 1 c309 -73 513 -336 503 -651 -8 -292 -212
-537 -503 -606 -64 -15 -761 -19 -772 -4 -4 5 -7 172 -6 370 2 298 6 370 19
419 83 298 338 491 636 482 52 -2 108 -6 123 -10z m-1337 -2216 c0 -212 -1
-390 -3 -395 -2 -7 -137 -10 -391 -9 -213 1 -389 2 -392 3 -4 1 -6 786 -1 786
0 0 178 0 394 0 l392 0 1 -385z m-1352 -1330 c-1 -345 -2 -369 -23 -445 -83
-297 -354 -491 -660 -472 -159 10 -298 73 -410 186 -125 126 -181 256 -187
431 -7 232 94 431 281 555 147 97 224 110 661 110 l339 0 -1 -365z m2711 346
c175 -47 336 -178 414 -336 23 -47 43 -95 46 -108 2 -12 7 -26 10 -32 3 -5 8
-51 11 -102 12 -195 -51 -363 -186 -498 -308 -308 -820 -228 -1021 160 -67
129 -72 162 -74 560 -1 195 2 360 6 366 6 7 124 10 371 8 299 -1 374 -5 423
-18z"/>
</g>
</svg>
