<?xml version="1.0" standalone="no"?>
<!DOCTYPE svg PUBLIC "-//W3C//DTD SVG 20010904//EN"
 "http://www.w3.org/TR/2001/REC-SVG-20010904/DTD/svg10.dtd">
<svg version="1.0" xmlns="http://www.w3.org/2000/svg"
 width="700.000000pt" height="700.000000pt" viewBox="0 0 700.000000 700.000000"
 preserveAspectRatio="xMidYMid meet">
<metadata>
Created by potrace 1.11, written by Peter Selinger 2001-2013
</metadata>
<g transform="translate(0.000000,700.000000) scale(0.100000,-0.100000)"
fill="#000000" stroke="none">
<path d="M1680 6453 c-33 -4 -103 -16 -159 -27 -62 -14 -194 -62 -266 -98
-271 -135 -488 -360 -603 -623 -37 -86 -67 -175 -81 -246 -6 -30 -13 -67 -16
-84 -13 -62 -12 -284 0 -361 22 -130 25 -146 50 -220 77 -229 242 -464 425
-605 97 -75 286 -178 359 -195 14 -4 31 -10 36 -14 9 -7 81 -23 87 -20 2 1 16
-3 31 -9 16 -6 58 -14 95 -17 37 -4 74 -8 82 -10 8 -1 185 -3 393 -3 l377 -1
0 -415 c0 -228 -3 -415 -7 -416 -5 0 -183 -2 -398 -3 -374 -3 -447 -7 -525
-26 -19 -5 -50 -12 -68 -15 -54 -9 -190 -62 -270 -106 -197 -105 -374 -268
-486 -447 -28 -44 -88 -160 -93 -177 -1 -5 -15 -44 -29 -85 -56 -158 -70 -249
-67 -445 3 -329 129 -621 373 -865 243 -243 536 -366 880 -368 211 -1 372 34
555 122 365 175 612 493 701 901 16 75 25 366 24 835 l0 86 417 -1 416 0 2
-405 c1 -280 6 -425 14 -470 7 -36 15 -76 18 -90 7 -39 60 -193 84 -246 116
-250 337 -478 587 -603 61 -31 221 -88 272 -98 160 -30 185 -32 330 -28 212 5
341 36 518 123 371 181 638 544 699 948 10 64 10 315 1 379 -38 262 -172 522
-368 715 -142 140 -300 237 -487 300 -169 56 -230 62 -663 65 -217 2 -400 4
-405 4 -8 1 -11 133 -10 414 l0 412 25 2 c14 1 205 4 425 6 427 5 477 10 638
66 300 105 569 336 711 611 49 95 98 226 115 310 6 30 14 66 17 80 11 45 13
334 3 385 -54 263 -130 436 -268 607 -178 220 -398 363 -671 434 -123 32 -180
39 -320 38 -213 0 -362 -35 -555 -129 -361 -175 -617 -512 -691 -911 -13 -72
-17 -165 -19 -494 l-2 -405 -416 -3 -417 -2 0 27 c1 175 -9 815 -13 838 -64
401 -311 746 -669 937 -79 43 -209 91 -303 113 -102 25 -311 38 -415 28z m299
-608 c231 -59 404 -228 484 -469 19 -56 21 -93 24 -464 l5 -403 -404 3 -403 4
-80 27 c-200 68 -366 228 -432 419 -35 101 -38 118 -36 243 1 90 6 124 27 188
27 81 90 191 141 248 104 117 266 202 420 222 59 7 193 -2 254 -18z m3351 5
c209 -54 367 -177 458 -356 49 -97 67 -174 67 -294 0 -63 -3 -128 -7 -145 -41
-185 -163 -356 -319 -448 -35 -21 -100 -50 -144 -64 l-80 -27 -401 -4 -400 -3
1 388 c1 367 3 392 23 466 38 134 103 240 204 331 76 69 213 139 313 159 78
16 217 15 285 -3z m-1415 -2340 c0 -223 -1 -409 -2 -415 -3 -10 -817 -14 -828
-3 -5 4 -7 287 -5 706 l0 122 417 -2 417 -3 1 -405z m-1427 -1415 c-4 -400 -4
-400 -30 -478 -70 -210 -228 -371 -433 -442 -100 -35 -261 -44 -365 -19 -316
73 -540 365 -525 684 9 180 74 330 194 449 87 86 154 129 260 166 106 37 146
40 544 40 l359 0 -4 -400z m2830 387 c18 -6 33 -10 35 -10 7 3 90 -29 138 -53
157 -78 283 -227 340 -404 30 -91 33 -275 6 -374 -66 -243 -277 -442 -517
-489 -47 -9 -226 -9 -270 0 -249 50 -453 241 -520 488 -21 76 -22 84 -24 476
l-2 380 390 -2 c238 -1 404 -6 424 -12z"/>
</g>
</svg>
