<?xml version="1.0" standalone="no"?>
<!DOCTYPE svg PUBLIC "-//W3C//DTD SVG 20010904//EN"
 "http://www.w3.org/TR/2001/REC-SVG-20010904/DTD/svg10.dtd">
<svg version="1.0" xmlns="http://www.w3.org/2000/svg"
 width="700.000000pt" height="700.000000pt" viewBox="0 0 700.000000 700.000000"
 preserveAspectRatio="xMidYMid meet">
<metadata>
Created by potrace 1.11, written by Peter Selinger 2001-2013
</metadata>
<g transform="translate(0.000000,700.000000) scale(0.100000,-0.100000)"
fill="#000000" stroke="none">
<path d="M3496 6929 c-82 -11 -187 -53 -256 -104 -102 -75 -138 -129 -279
-413 -72 -147 -144 -291 -159 -321 l-27 -54 -110 -27 c-490 -123 -959 -384
-1332 -743 -509 -491 -832 -1158 -903 -1866 -13 -132 -13 -439 0 -572 45 -458
205 -928 447 -1312 103 -163 256 -367 267 -356 7 7 647 1340 658 1371 8 23 2
43 -40 135 -66 142 -82 205 -89 344 -7 138 11 239 61 356 18 43 213 449 433
903 603 1243 774 1593 957 1958 182 363 201 392 306 441 48 23 68 26 155 26
86 0 107 -3 150 -24 66 -33 125 -94 161 -167 26 -53 29 -69 29 -159 l0 -100
-398 -813 c-283 -580 -397 -823 -397 -847 0 -53 16 -64 125 -85 80 -15 149
-37 210 -68 28 -13 52 -26 54 -28 2 -2 -17 -22 -42 -44 -26 -23 -58 -65 -74
-98 -24 -49 -28 -69 -28 -142 0 -70 4 -94 24 -135 36 -71 96 -126 190 -173 94
-47 133 -52 192 -22 36 19 46 35 127 195 48 96 90 175 94 175 15 0 81 -77 103
-120 74 -147 49 -307 -65 -414 -78 -73 -126 -91 -245 -91 l-100 0 -97 53
c-146 80 -178 63 -178 -94 0 -306 -147 -568 -385 -685 -129 -63 -215 -81 -393
-83 -140 -1 -155 -3 -168 -20 -19 -27 -18 -69 4 -96 38 -47 290 -47 462 0 224
63 416 214 521 411 42 79 134 170 206 206 91 44 164 43 288 -2 223 -82 399
-49 554 104 37 36 74 77 83 90 l15 25 49 -29 c67 -39 171 -147 217 -225 103
-178 129 -421 66 -626 -25 -81 -294 -622 -352 -709 -56 -84 -170 -192 -256
-243 -88 -52 -200 -91 -286 -99 -52 -5 -69 -11 -88 -32 -31 -34 -721 -1350
-712 -1359 4 -4 79 -7 168 -6 1329 7 2484 868 2867 2136 88 292 123 536 123
858 0 430 -76 798 -245 1193 l-51 118 143 292 c78 161 151 317 162 347 29 78
35 235 14 320 -27 108 -72 188 -150 266 -179 180 -437 223 -665 111 -93 -45
-207 -159 -255 -254 -20 -40 -38 -73 -41 -73 -3 0 -49 34 -104 75 -301 229
-696 418 -1064 511 -75 18 -75 18 -36 96 48 95 64 275 34 388 -39 146 -160
299 -290 367 -105 55 -235 77 -359 62z m2516 -1372 c115 -52 188 -163 196
-297 3 -56 -1 -88 -14 -126 -11 -29 -257 -541 -549 -1138 l-530 -1086 -7 58
c-18 140 -81 284 -174 396 -54 65 -179 172 -234 201 l-29 15 69 142 c262 549
831 1701 855 1732 93 122 277 168 417 103z m-2080 -380 c112 -50 187 -160 196
-286 6 -91 -10 -140 -112 -348 l-85 -172 -243 119 c-134 65 -272 127 -308 136
-36 10 -66 19 -68 20 -2 1 49 105 112 232 119 238 131 254 213 296 85 43 206
44 295 3z m774 -378 c73 -34 126 -90 163 -168 22 -48 26 -69 26 -151 l-1 -95
-225 -455 c-249 -500 -255 -509 -369 -563 -55 -27 -76 -31 -145 -31 -65 0 -91
5 -137 27 -32 14 -58 28 -58 30 0 2 29 19 65 36 119 59 226 191 261 325 8 28
14 83 14 121 0 139 -49 254 -154 359 l-68 69 83 171 c45 94 95 190 111 213 47
70 123 118 218 139 75 17 143 8 216 -27z m-914 -530 c37 -18 68 -35 68 -39 0
-8 -138 -302 -145 -309 -9 -9 -99 33 -132 62 -46 40 -65 81 -65 137 0 53 18
93 59 132 59 57 118 61 215 17z"/>
</g>
</svg>
