<svg width="56" height="56" viewBox="0 0 5600 5600" fill-rule="evenodd" clip-rule="evenodd" aria-labelledby="logo-title logo-description" role="img">
	<title id="logo-title">
		Kyle Foster
	</title>
	<desc id="logo-description">
		Design Engineer
	</desc>
  <svg viewBox="0 0 5600 5600" fill-rule="evenodd" clip-rule="evenodd">
  <mask id="mymask">
	  <path fill="white" d="M0 0h5600v5600h-5600z" />
	  <path d="M3802.5 456.725l172.101-397.989 15.393 6.657c696.957 306.45 1265.98 883.713 1561.53 1584.21l-399.514 168.565c-1.077-2.275-2.088-4.588-3.331-6.777-5.17-9.099-12.58-16.924-21.396-22.585-19.858-12.75-46.743-13.459-67.23-1.818-20.718 11.772-33.636 35.213-32.852 58.684.233 6.994.924 8.683 2.407 15.484l2.584 7.411.054.132-309.935 130.769c-208.43-493.999-611.44-901.26-1104.93-1114.66l133.495-308.711c3.063 1.297 6.159 2.506 9.369 3.445 15.084 4.412 31.742 3.112 45.959-3.588 16.569-7.809 29.52-22.925 34.675-40.549 7.434-25.411-2.353-54.357-23.2-70.109-5.583-4.219-7.331-4.745-13.549-7.871l-1.634-.701z" fill="black" />
  </mask>
	<path d="M2819.9 1352.7m0 0c-795.5 0-1442.5 635-1442.5 1415.3 0 780.2 647 1415.1 1442.5 1415.1s1442.2-634.9 1442.2-1415.1c0-780.3-646.7-1415.3-1442.2-1415.3zm-50.2 2729.3c-185.2-16.8-363.3-127.3-504.7-313.1 163.9 39.5 333.6 60.8 504.7 64.5v248.6zm100 0v-248.8c171.3-3.3 341-25.2 504.9-64.6-141.8 186.1-319.7 296.8-504.9 313.4zm-1110-506.4c111.3 61.1 231.7 112.5 358.9 152.5 66.7 107.2 147.5 201.4 235.8 274.4-236.3-85.5-440.1-231.6-594.7-426.9zm1525.7 426.9c88.1-72.9 168.8-167 235.7-274.3 127.5-40.1 248.2-91.5 359.1-152.4-154.8 195.1-358.7 341.2-594.8 426.7zm-415.7-917.5c285.7-5.1 561.1-54.5 798.4-143.8-22.2 262-95.7 506.2-213.1 706.5-185.7 54.5-382.6 84.4-585.5 88.7l.2-651.4zm-100 651.1c-202.4-4.3-399.4-34.2-585.4-89.1-117.3-200.3-190.9-444.3-213.2-706.3 236.9 89.4 512.4 138.8 798.6 143.8v651.6zm1393.1-968.1c0-40.601-2.1-81.9-7.1-128.9-95.1 99.2-227.4 188.7-384.6 259.6-15.8 254.1-77.8 495.9-180.1 703.3 156.1-58.4 295.9-133 417.5-221.7 102.2-191.3 154.3-397.3 154.3-612.3zm-2686.2.1c0-40.7 2.5-83.2 7.6-129.2 95 99.6 227.2 189 384.2 259.7 15.8 254.3 78 497 180.3 703.1-154.7-57.6-295-132.2-417.8-221.5-102.4-190.6-154.3-396.6-154.3-612.1zm1293.1 219.4l.2-717.2c-271.5-5.5-517.8-56.4-696.5-143.8-72 196.7-109.9 418.2-109.9 641.7l1.7 57.2.6 9.8c233.2 94.5 510.6 146.8 803.9 152.3zm100-717.3c271.1-5.6 517.6-56.3 696.7-143.8 71.7 196.8 109.5 418.4 109.5 641.7l-1.9 49.2-.6 17.8c-233.4 94.5-511.1 146.9-804.1 152.3l.4-717.2zm-1048.6-380.7c-161.5 176.5-271.5 391.2-318.3 621.7 78.3 106.3 202.9 202.7 361.9 279.8l-.6-22.9c0-240.9 42.5-479.6 122.6-690.7-84.5-55.3-141.299-119.699-165.6-187.9zm1953.7 901l.6-22.6c-.1-240.8-42.4-479.3-122.3-690.4 84.7-55.3 141.2-119.7 165.2-187.8 161.3 176.7 271.3 391.2 318 621.8-78 106.1-203.1 202.5-361.5 279zm-1005.1-617.8c-254.5-5.9-493.8-56.2-659.5-138.7 149.3-340.5 394.7-556.2 659.5-580v718.7zm100-718.5v718.5c254.5-5.9 493.7-56.3 659.6-138.7-149.4-340.2-394.999-555.8-659.6-579.8zm-962.5 349.6l-1 8c0 58.8 41.1 118.4 118.6 172.3 84.1-186.6 196.9-340.9 328.5-449.9-164.3 60.1-317.4 152.6-446.1 269.6zm1825.4-.2c-129.101-117.2-282.1-209.7-445.9-269.6 131.7 108.9 244.2 263 328.4 450 77.4-53.9 118.4-113.3 119-172.4l-1.1-5.4-.4-2.6zm1007.5-269h-1.1c-20.6 0-37.6-15.2-39.6-35.5-5.3-76.4-67.7-130.1-146.7-125.5-22.2 0-39.8-15.1-41.4-35.4 0-22.8 15.1-40 36.2-41.6 39-2.6 72.8-18.5 95.7-44.8 23.3-26.2 34.5-61.2 31.9-98.6 0-22.3 16-39.8 36.7-41.1l3.1-.3c20.1 0 36.8 15.7 38.9 35.8 5 72.7 61.5 125.6 134.4 125.2l11.8-.4c22.8 0 40.2 15 42 35.8.5 22.6-15.1 40.2-35.4 41.6-38.9 2.6-73.2 18.4-96.4 44.6-21.4 24.6-33.2 56.9-32.2 91.3l2 10.1c0 17.6-13.9 31.6-29.5 36.7v2l-10.4.1zm-720.7-466h.2c148-9.7 265 92.3 274.6 235.8 2 20.2 18.9 35.9 39.3 35.9h1.9c10.8 0 20.9-4.2 27.2-11.2 7.4-7.5 11.5-17.2 11.5-27.4l-1.5-11.1c-5.4-139.8 97.6-252.2 239.6-261.7 20.9-1.1 37.5-18 37.3-40.4l-.8-3.2c-2-19-18.8-33.7-38.4-33.7l-3.2.2-20.1.8c-137.9 0-245.1-99.1-254.5-235.3-.9-20.9-18.6-36.6-41-36.6-21.5.8-37.7 18.3-37.7 41.3 4.7 69.8-16.8 135.6-60.4 185.2-44 49.6-108.1 79.4-179.6 84.1-20.7 1.7-36.2 19.3-36.2 41.4 1.198 20.371 18.85 35.856 41.8 35.9zm678.1-224.8h-.8c-20.6 0-38-15.7-39.4-35.8-3.1-40.9-35.9-70.6-78.9-68-22.751-.046-40.9-16.328-41.2-36.3 0-22.6 15.2-39.7 36.5-40.8 20.7-1.6 38.7-10 51.2-24 12.7-13.9 18.7-33 17.2-53.5 0-22.5 15.8-39.9 36.1-41.4 23.2 0 40.7 15.5 41.8 36.1 3.2 40.5 32.1 67.8 72.6 67.8l6.7-.2 2.6-.1h.1c20.9 0 37.9 16.3 38.7 36.4.4 22.1-15.4 39.5-35.8 40.9-21 1.4-39.4 9.8-51.7 23.9-11 12.1-17.2 28.3-17.5 45.8l1.9 10.4c0 22.9-21.299 38.8-40.1 38.8z" fill="yellow" />
	<g class="rocket">
    <path d="M516.755 3777.56c-128.78-300.077-200.107-630.555-200.107-977.562 0-1370.6 1112.75-2483.35 2483.35-2483.35s2483.35 1112.75 2483.35 2483.35-1112.75 2483.35-2483.35 2483.35c-489.524 0-946.156-141.947-1330.95-386.891" stroke="yellow" stroke-width="130" fill="none" mask="url(#mymask)" stroke-linecap="round" />
	  <path d="M1543.02 4435.88c-106.2-108.6-257-128.1-263.4-128.9l-39-5.4c-223.5-213.7-531.5-251.7-534-252l-70.3-9.1 6.2 68.8c3.2 31.9 36.2 316.4 235.8 533.8l3.7 38c.6 6.2 14.2 155.3 120.3 263.3 84 86 173.2 137.9 238.9 139.5h2.5c26.6 0 50.2-8.8 68.8-25.7 27.2-25.4 34.9-64.4 22.9-110.8 18.4 4.1 35.4 6.1 52.1 6.2 43.2 0 78.7-12.3 106.2-37.5 36.3-35.2 49.4-87.3 38.7-153 15 4.5 30 6.5 44.7 6.7 26.2 0 49.6-8.4 68.2-25.2 12.9-11.6 28.3-33.4 29.1-69 2-64.2-47.5-153.7-131.4-239.7zm-459.7 246c-38.4-31.9-73.9-64.9-106-97.9-131.6-134-186.7-312.5-208-408 96.1 24.6 276 85.5 407.3 219.9 25.2 25.6 47.9 50.6 68.8 74.8l18.8 23.8 32 40.8 6.2 8.8 15.7 21.1 33.3 51.2 11.9 21 5.3 10.1c60.6 111.3 60.5 173.6 45.9 187.9-4.4 4.3-13.7 6.8-28.5 6.8h-.2c-40.6-1.4-100.4-23.6-172.7-67l-12.9-7.6c-38.5-24-73.7-49.6-107.6-77.9l-9.3-7.8zm160.6 381v.2-.2z" fill="yellow" />
  </g>
</svg>

